<svg width="22" height="18" viewBox="0 0 22 18" fill="none" xmlns="http://www.w3.org/2000/svg">
<path d="M20.75 0.75H1.25C0.835156 0.75 0.5 1.08516 0.5 1.5V16.5C0.5 16.9148 0.835156 17.25 1.25 17.25H20.75C21.1648 17.25 21.5 16.9148 21.5 16.5V1.5C21.5 1.08516 21.1648 0.75 20.75 0.75ZM6.92188 4.125C7.74922 4.125 8.42188 4.79766 8.42188 5.625C8.42188 6.45234 7.74922 7.125 6.92188 7.125C6.09453 7.125 5.42188 6.45234 5.42188 5.625C5.42188 4.79766 6.09453 4.125 6.92188 4.125ZM18.9664 14.3695C18.9323 14.3982 18.8891 14.414 18.8445 14.4141H3.15312C3.05 14.4141 2.96562 14.3297 2.96562 14.2266C2.96562 14.182 2.98203 14.1398 3.01016 14.1047L7.00156 9.37031C7.06719 9.29062 7.18672 9.28125 7.26641 9.34687C7.27344 9.35391 7.28281 9.36094 7.28984 9.37031L9.61953 12.1359L13.325 7.74141C13.3906 7.66172 13.5102 7.65234 13.5898 7.71797C13.5969 7.725 13.6062 7.73203 13.6133 7.74141L18.9945 14.107C19.0555 14.1844 19.0461 14.3039 18.9664 14.3695Z" fill="#8A8A99"/>
</svg>
