<svg width="16" height="16" viewBox="0 0 16 16" fill="none" xmlns="http://www.w3.org/2000/svg">
<path fill-rule="evenodd" clip-rule="evenodd" d="M8 16C10.1217 16 12.1566 15.1571 13.6569 13.6569C15.1571 12.1566 16 10.1217 16 8C16 5.87827 15.1571 3.84344 13.6569 2.34315C12.1566 0.842855 10.1217 0 8 0C5.87827 0 3.84344 0.842855 2.34315 2.34315C0.842855 3.84344 0 5.87827 0 8C0 10.1217 0.842855 12.1566 2.34315 13.6569C3.84344 15.1571 5.87827 16 8 16ZM5 7C5.26522 7 5.51957 6.89464 5.70711 6.70711C5.89464 6.51957 6 6.26522 6 6C6 5.73478 5.89464 5.48043 5.70711 5.29289C5.51957 5.10536 5.26522 5 5 5C4.73478 5 4.48043 5.10536 4.29289 5.29289C4.10536 5.48043 4 5.73478 4 6C4 6.26522 4.10536 6.51957 4.29289 6.70711C4.48043 6.89464 4.73478 7 5 7ZM12 6C12 6.26522 11.8946 6.51957 11.7071 6.70711C11.5196 6.89464 11.2652 7 11 7C10.7348 7 10.4804 6.89464 10.2929 6.70711C10.1054 6.51957 10 6.26522 10 6C10 5.73478 10.1054 5.48043 10.2929 5.29289C10.4804 5.10536 10.7348 5 11 5C11.2652 5 11.5196 5.10536 11.7071 5.29289C11.8946 5.48043 12 5.73478 12 6ZM11.536 11.535C11.6288 11.4421 11.7025 11.3318 11.7527 11.2104C11.8029 11.0891 11.8287 10.959 11.8287 10.8276C11.8287 10.6963 11.8027 10.5662 11.7524 10.4449C11.7021 10.3236 11.6284 10.2133 11.5355 10.1205C11.4426 10.0277 11.3323 9.95402 11.2109 9.9038C11.0896 9.85358 10.9595 9.82775 10.8281 9.8278C10.6968 9.82784 10.5667 9.85376 10.4454 9.90407C10.3241 9.95438 10.2138 10.0281 10.121 10.121C9.55842 10.6834 8.79549 10.9994 8 10.9994C7.20451 10.9994 6.44158 10.6834 5.879 10.121C5.69149 9.93336 5.43712 9.82789 5.17185 9.8278C4.90658 9.8277 4.65214 9.93299 4.4645 10.1205C4.27686 10.308 4.17139 10.5624 4.1713 10.8276C4.1712 11.0929 4.27649 11.3474 4.464 11.535C4.92831 11.9994 5.47956 12.3678 6.08628 12.6192C6.69299 12.8706 7.34328 12.9999 8 12.9999C8.65672 12.9999 9.30701 12.8706 9.91372 12.6192C10.5204 12.3678 11.0717 11.9994 11.536 11.535Z" fill="#6E6F78"/>
</svg>
