<svg width="14" height="14" viewBox="0 0 14 14" fill="none" xmlns="http://www.w3.org/2000/svg">
<path d="M6.9987 13.6667C3.3167 13.6667 0.332031 10.682 0.332031 7C0.332031 3.318 3.3167 0.333336 6.9987 0.333336C10.6807 0.333336 13.6654 3.318 13.6654 7C13.6654 10.682 10.6807 13.6667 6.9987 13.6667ZM5.47203 12.1113C4.81431 10.7162 4.43328 9.20681 4.35003 7.66667H1.7067C1.83642 8.6926 2.26131 9.65878 2.92974 10.4478C3.59817 11.2368 4.48137 11.8147 5.47203 12.1113ZM5.68536 7.66667C5.78603 9.29267 6.2507 10.82 6.9987 12.168C7.76691 10.7844 8.21566 9.24632 8.31203 7.66667H5.68536ZM12.2907 7.66667H9.64736C9.56412 9.20681 9.18309 10.7162 8.52536 12.1113C9.51602 11.8147 10.3992 11.2368 11.0677 10.4478C11.7361 9.65878 12.161 8.6926 12.2907 7.66667ZM1.7067 6.33334H4.35003C4.43328 4.79319 4.81431 3.28379 5.47203 1.88867C4.48137 2.18526 3.59817 2.76317 2.92974 3.5522C2.26131 4.34123 1.83642 5.3074 1.7067 6.33334ZM5.68603 6.33334H8.31136C8.2152 4.75374 7.76668 3.21569 6.9987 1.832C6.23048 3.21564 5.78174 4.75368 5.68536 6.33334H5.68603ZM8.52536 1.88867C9.18309 3.28379 9.56412 4.79319 9.64736 6.33334H12.2907C12.161 5.3074 11.7361 4.34123 11.0677 3.5522C10.3992 2.76317 9.51602 2.18526 8.52536 1.88867Z" fill="#8A8A99"/>
</svg>
