<svg width="44" height="44" viewBox="0 0 44 44" fill="none" xmlns="http://www.w3.org/2000/svg">
<path d="M21.9993 40.3333C11.8738 40.3333 3.66602 32.1255 3.66602 22C3.66602 11.8745 11.8738 3.66663 21.9993 3.66663C32.1248 3.66663 40.3327 11.8745 40.3327 22C40.3327 32.1255 32.1248 40.3333 21.9993 40.3333ZM17.801 36.0561C15.9923 32.2195 14.9444 28.0687 14.7155 23.8333H7.44635C7.80309 26.6546 8.97154 29.3116 10.8097 31.4814C12.6479 33.6512 15.0767 35.2405 17.801 36.0561ZM18.3877 23.8333C18.6645 28.3048 19.9423 32.505 21.9993 36.212C24.1119 32.407 25.346 28.1773 25.611 23.8333H18.3877ZM36.5523 23.8333H29.2832C29.0543 28.0687 28.0064 32.2195 26.1977 36.0561C28.922 35.2405 31.3508 33.6512 33.189 31.4814C35.0272 29.3116 36.1956 26.6546 36.5523 23.8333ZM7.44635 20.1666H14.7155C14.9444 15.9312 15.9923 11.7804 17.801 7.94379C15.0767 8.75941 12.6479 10.3487 10.8097 12.5185C8.97154 14.6883 7.80309 17.3453 7.44635 20.1666ZM18.3895 20.1666H25.6092C25.3447 15.8227 24.1113 11.5931 21.9993 7.78796C19.8868 11.5929 18.6527 15.8226 18.3877 20.1666H18.3895ZM26.1977 7.94379C28.0064 11.7804 29.0543 15.9312 29.2832 20.1666H36.5523C36.1956 17.3453 35.0272 14.6883 33.189 12.5185C31.3508 10.3487 28.922 8.75941 26.1977 7.94379Z" fill="#632A6D"/>
</svg>
