<svg width="44" height="44" viewBox="0 0 44 44" fill="none" xmlns="http://www.w3.org/2000/svg">
<g clip-path="url(#clip0)">
<path d="M43.0833 42.1667H0.916695C0.410695 42.1667 0 42.5774 0 43.0834C0 43.5894 0.410695 44.0001 0.916695 44.0001H43.0834C43.5894 44.0001 44.0001 43.5894 44.0001 43.0834C44 42.5774 43.5893 42.1667 43.0833 42.1667Z" fill="white"/>
<path d="M8.25068 31.1667H2.75068C2.24468 31.1667 1.83398 31.5774 1.83398 32.0834V43.0834C1.83398 43.5894 2.24468 44.0001 2.75068 44.0001H8.25068C8.75668 44.0001 9.16737 43.5894 9.16737 43.0834V32.0834C9.16737 31.5774 8.75668 31.1667 8.25068 31.1667ZM7.33398 42.1667H3.66737V33.0001H7.33407V42.1667H7.33398Z" fill="white"/>
<path d="M19.2507 22H13.7507C13.2447 22 12.834 22.4107 12.834 22.9167V43.0834C12.834 43.5894 13.2447 44.0001 13.7507 44.0001H19.2507C19.7567 44.0001 20.1674 43.5894 20.1674 43.0834V22.9167C20.1674 22.4107 19.7567 22 19.2507 22ZM18.334 42.1667H14.6673V23.8333H18.334V42.1667Z" fill="white"/>
<path d="M30.2507 25.6667H24.7507C24.2447 25.6667 23.834 26.0774 23.834 26.5834V43.0834C23.834 43.5894 24.2447 44.0001 24.7507 44.0001H30.2507C30.7567 44.0001 31.1674 43.5894 31.1674 43.0834V26.5834C31.1674 26.0774 30.7567 25.6667 30.2507 25.6667ZM29.334 42.1667H25.6673V27.5001H29.334V42.1667Z" fill="white"/>
<path d="M41.2507 14.6667H35.7507C35.2447 14.6667 34.834 15.0774 34.834 15.5834V43.0834C34.834 43.5894 35.2447 44.0001 35.7507 44.0001H41.2507C41.7567 44.0001 42.1674 43.5894 42.1674 43.0834V15.5834C42.1674 15.0774 41.7567 14.6667 41.2507 14.6667ZM40.334 42.1667H36.6673V16.5001H40.334V42.1667Z" fill="white"/>
<path d="M5.50068 16.5C3.47848 16.5 1.83398 18.1445 1.83398 20.1667C1.83398 22.1889 3.47848 23.8334 5.50068 23.8334C7.52287 23.8334 9.16737 22.1889 9.16737 20.1667C9.16737 18.1445 7.52287 16.5 5.50068 16.5ZM5.50068 22C4.48868 22 3.66737 21.1768 3.66737 20.1667C3.66737 19.1565 4.48868 18.3334 5.50068 18.3334C6.51268 18.3334 7.33398 19.1566 7.33398 20.1667C7.33398 21.1768 6.51268 22 5.50068 22Z" fill="white"/>
<path d="M16.5007 7.33325C14.4785 7.33325 12.834 8.97775 12.834 10.9999C12.834 13.0221 14.4785 14.6666 16.5007 14.6666C18.5229 14.6666 20.1674 13.0221 20.1674 10.9999C20.1674 8.97775 18.5229 7.33325 16.5007 7.33325ZM16.5007 12.8332C15.4887 12.8332 14.6674 12.0101 14.6674 10.9999C14.6674 9.98975 15.4887 9.16664 16.5007 9.16664C17.5127 9.16664 18.334 9.98984 18.334 10.9999C18.334 12.0101 17.5127 12.8332 16.5007 12.8332Z" fill="white"/>
<path d="M27.5007 11C25.4785 11 23.834 12.6445 23.834 14.6667C23.834 16.6889 25.4785 18.3334 27.5007 18.3334C29.5229 18.3334 31.1674 16.6889 31.1674 14.6667C31.1674 12.6445 29.5229 11 27.5007 11ZM27.5007 16.5C26.4887 16.5 25.6674 15.6768 25.6674 14.6667C25.6674 13.6565 26.4887 12.8334 27.5007 12.8334C28.5127 12.8334 29.334 13.6566 29.334 14.6667C29.334 15.6768 28.5127 16.5 27.5007 16.5Z" fill="white"/>
<path d="M38.5007 0C36.4785 0 34.834 1.6445 34.834 3.6667C34.834 5.68889 36.4785 7.33339 38.5007 7.33339C40.5229 7.33339 42.1674 5.68889 42.1674 3.6667C42.1674 1.6445 40.5229 0 38.5007 0ZM38.5007 5.5C37.4887 5.5 36.6674 4.6768 36.6674 3.6667C36.6674 2.6565 37.4887 1.83339 38.5007 1.83339C39.5127 1.83339 40.334 2.65659 40.334 3.6667C40.334 4.6768 39.5127 5.5 38.5007 5.5Z" fill="white"/>
<path d="M37.205 4.961C36.8475 4.6035 36.2663 4.6035 35.9088 4.961L28.7955 12.0743C28.438 12.4318 28.438 13.013 28.7955 13.3705C28.9752 13.5483 29.2098 13.6382 29.4445 13.6382C29.6773 13.6382 29.912 13.5502 30.0917 13.3705L37.205 6.25719C37.5625 5.89969 37.5625 5.3185 37.205 4.961Z" fill="white"/>
<path d="M25.282 12.551L19.3933 10.8717C18.9001 10.7287 18.3996 11.0147 18.2621 11.5024C18.1228 11.9901 18.4051 12.4961 18.8909 12.6354L24.7796 14.3147C24.8639 14.3385 24.9483 14.3495 25.0308 14.3495C25.4305 14.3495 25.7971 14.0873 25.9126 13.684C26.052 13.1982 25.7697 12.6903 25.282 12.551Z" fill="white"/>
<path d="M15.0717 12.1423C14.7564 11.7463 14.1807 11.6821 13.7847 11.9956L6.87301 17.5066C6.47701 17.8238 6.41101 18.3994 6.72821 18.7954C6.90971 19.0227 7.17741 19.1401 7.44501 19.1401C7.64482 19.1401 7.84652 19.0741 8.01521 18.9421L14.9269 13.4311C15.3229 13.1139 15.3889 12.5383 15.0717 12.1423Z" fill="white"/>
</g>
<defs>
<clipPath id="clip0">
<rect width="44" height="44" fill="white"/>
</clipPath>
</defs>
</svg>
