<svg width="44" height="44" viewBox="0 0 44 44" fill="none" xmlns="http://www.w3.org/2000/svg">
<path d="M40.9858 12.1433L40.9533 12.087C40.9081 11.9935 40.8561 11.9038 40.798 11.8187L34.6767 1.23578C34.2358 0.473517 33.4149 0 32.5343 0H11.4678C10.5858 0 9.76425 0.474634 9.32347 1.23896L3.10245 12.0315C3.04641 12.1288 3.00602 12.2306 2.97749 12.3339C2.88992 12.5704 2.8418 12.8259 2.8418 13.0924V40.9676C2.8418 42.6396 4.2021 43.9999 5.87411 43.9999H38.1269C39.7989 43.9999 41.1592 42.6396 41.1592 40.9676V12.9903C41.1592 12.9529 41.1581 12.9157 41.1561 12.8788C41.1736 12.6307 41.1198 12.3749 40.9858 12.1433ZM23.3342 2.57908H32.4743L37.2896 10.9041H23.3342V2.57908ZM11.5279 2.57908H20.7551V10.9041H6.7291L11.5279 2.57908ZM38.5801 40.9677C38.5801 41.2176 38.3768 41.4209 38.1269 41.4209H5.87411C5.6242 41.4209 5.42087 41.2176 5.42087 40.9677V13.4832H38.5801V40.9677Z" fill="#632A6D"/>
<path d="M27.8526 23.2054C27.3491 22.7019 26.5325 22.7019 26.0289 23.2054L20.2709 28.9634L18.0568 26.7493C17.5533 26.2458 16.7368 26.2458 16.2332 26.7493C15.7296 27.2528 15.7296 28.0694 16.2332 28.573L19.3592 31.6989C19.611 31.9507 19.9411 32.0766 20.271 32.0766C20.6009 32.0766 20.9311 31.9507 21.1828 31.6989L27.8526 25.0291C28.3562 24.5255 28.3562 23.709 27.8526 23.2054Z" fill="#632A6D"/>
</svg>
