<svg width="91" height="117" viewBox="0 0 91 117" fill="none" xmlns="http://www.w3.org/2000/svg">
<circle cx="45.5" cy="45.6453" r="44.741" fill="#F1F1F1"/>
<rect x="27.948" y="44.7345" width="43.8024" height="61.3234" rx="4.38024" transform="rotate(2.5 27.948 44.7345)" fill="#EEEEEE" stroke="#999999" stroke-width="1.2515"/>
<rect x="1.90779" y="41.0668" width="46.3054" height="63.8263" rx="5.63174" transform="rotate(-7.5 1.90779 41.0668)" fill="#FAFAFA" stroke="#999999" stroke-width="1.2515"/>
<path d="M3.26328 46.5686C2.90241 43.8276 4.83195 41.3129 7.57302 40.9521L42.3151 36.3782C45.0562 36.0173 47.5709 37.9468 47.9317 40.6879L49.1569 49.9938L4.48842 55.8746L3.26328 46.5686Z" fill="#EEEEEE"/>
<rect x="56.9926" y="37.6016" width="1.87725" height="6.25748" rx="0.938623" transform="rotate(82.5 56.9926 37.6016)" fill="#999999"/>
<rect x="39.8492" y="27.2344" width="1.87725" height="6.25748" rx="0.938623" transform="rotate(-7.5 39.8492 27.2344)" fill="#999999"/>
<rect x="50.8484" y="28.9434" width="1.87725" height="6.25748" rx="0.938623" transform="rotate(37.5 50.8484 28.9434)" fill="#999999"/>
<rect x="9.1579" y="57.7832" width="36.2934" height="2.50299" rx="1.2515" transform="rotate(-7.5 9.1579 57.7832)" fill="#DCDCDC"/>
<rect x="10.7914" y="70.1914" width="36.2934" height="2.50299" rx="1.2515" transform="rotate(-7.5 10.7914 70.1914)" fill="#DCDCDC"/>
<rect x="12.4249" y="82.5996" width="36.2934" height="2.50299" rx="1.2515" transform="rotate(-7.5 12.4249 82.5996)" fill="#DCDCDC"/>
<rect x="9.81128" y="62.7461" width="13.1407" height="2.50299" rx="1.2515" transform="rotate(-7.5 9.81128 62.7461)" fill="#EEEEEE"/>
<rect x="11.4448" y="75.1543" width="13.1407" height="2.50299" rx="1.2515" transform="rotate(-7.5 11.4448 75.1543)" fill="#EEEEEE"/>
<rect x="13.0784" y="87.5625" width="13.1407" height="2.50299" rx="1.2515" transform="rotate(-7.5 13.0784 87.5625)" fill="#EEEEEE"/>
</svg>
