<svg width="12" height="14" viewBox="0 0 12 14" fill="none" xmlns="http://www.w3.org/2000/svg">
<path d="M10.6667 5.66667H11.3333C11.5101 5.66667 11.6797 5.73691 11.8047 5.86193C11.9298 5.98695 12 6.15652 12 6.33333V13C12 13.1768 11.9298 13.3464 11.8047 13.4714C11.6797 13.5964 11.5101 13.6667 11.3333 13.6667H0.666667C0.489856 13.6667 0.320286 13.5964 0.195262 13.4714C0.0702379 13.3464 0 13.1768 0 13V6.33333C0 6.15652 0.0702379 5.98695 0.195262 5.86193C0.320286 5.73691 0.489856 5.66667 0.666667 5.66667H1.33333V5C1.33333 4.38717 1.45404 3.78033 1.68856 3.21414C1.92308 2.64796 2.26683 2.13351 2.70017 1.70017C3.13351 1.26683 3.64796 0.923085 4.21414 0.688563C4.78033 0.454041 5.38716 0.333334 6 0.333334C6.61284 0.333334 7.21967 0.454041 7.78586 0.688563C8.35204 0.923085 8.86649 1.26683 9.29983 1.70017C9.73317 2.13351 10.0769 2.64796 10.3114 3.21414C10.546 3.78033 10.6667 4.38717 10.6667 5V5.66667ZM9.33333 5.66667V5C9.33333 4.11595 8.98214 3.2681 8.35702 2.64298C7.7319 2.01786 6.88406 1.66667 6 1.66667C5.11595 1.66667 4.2681 2.01786 3.64298 2.64298C3.01786 3.2681 2.66667 4.11595 2.66667 5V5.66667H9.33333ZM5.33333 8.33333V11H6.66667V8.33333H5.33333Z" fill="#212121"/>
</svg>
