<svg width="24" height="24" viewBox="0 0 24 24" fill="none" xmlns="http://www.w3.org/2000/svg">
<circle cx="12" cy="12" r="12" fill="#4338CA"/>
<mask id="mask0_3400:46318" style="mask-type:alpha" maskUnits="userSpaceOnUse" x="3" y="4" width="18" height="17">
<path fill-rule="evenodd" clip-rule="evenodd" d="M5.125 21C5.125 21 3.75 21 3.75 19.625C3.75 18.25 5.125 14.125 12 14.125C18.875 14.125 20.25 18.25 20.25 19.625C20.25 21 18.875 21 18.875 21H5.125ZM12 12.75C13.094 12.75 14.1432 12.3154 14.9168 11.5418C15.6904 10.7682 16.125 9.71902 16.125 8.625C16.125 7.53098 15.6904 6.48177 14.9168 5.70818C14.1432 4.9346 13.094 4.5 12 4.5C10.906 4.5 9.85677 4.9346 9.08318 5.70818C8.3096 6.48177 7.875 7.53098 7.875 8.625C7.875 9.71902 8.3096 10.7682 9.08318 11.5418C9.85677 12.3154 10.906 12.75 12 12.75Z" fill="#C75353"/>
</mask>
<g mask="url(#mask0_3400:46318)">
<circle cx="12" cy="12" r="9" fill="white"/>
</g>
</svg>
