<svg width="12" height="8" viewBox="0 0 12 8" fill="none" xmlns="http://www.w3.org/2000/svg">
<path fill-rule="evenodd" clip-rule="evenodd" d="M8.14592 0.646008C8.19236 0.599445 8.24754 0.562502 8.30828 0.537296C8.36903 0.512089 8.43415 0.499115 8.49992 0.499115C8.56568 0.499115 8.63081 0.512089 8.69155 0.537296C8.7523 0.562502 8.80747 0.599445 8.85392 0.646008L11.8539 3.64601C11.9005 3.69245 11.9374 3.74763 11.9626 3.80837C11.9878 3.86912 12.0008 3.93424 12.0008 4.00001C12.0008 4.06578 11.9878 4.1309 11.9626 4.19164C11.9374 4.25239 11.9005 4.30756 11.8539 4.35401L8.85392 7.35401C8.76003 7.4479 8.63269 7.50064 8.49992 7.50064C8.36714 7.50064 8.2398 7.4479 8.14592 7.35401C8.05203 7.26012 7.99929 7.13278 7.99929 7.00001C7.99929 6.86723 8.05203 6.7399 8.14592 6.64601L10.7929 4.00001L8.14592 1.35401C8.09935 1.30756 8.06241 1.25239 8.0372 1.19164C8.012 1.1309 7.99902 1.06578 7.99902 1.00001C7.99902 0.934241 8.012 0.86912 8.0372 0.808375C8.06241 0.74763 8.09935 0.692454 8.14592 0.646008Z" fill="#212121"/>
<path fill-rule="evenodd" clip-rule="evenodd" d="M0 4C0 3.86739 0.0526785 3.74021 0.146447 3.64645C0.240215 3.55268 0.367392 3.5 0.5 3.5H11C11.1326 3.5 11.2598 3.55268 11.3536 3.64645C11.4473 3.74021 11.5 3.86739 11.5 4C11.5 4.13261 11.4473 4.25979 11.3536 4.35355C11.2598 4.44732 11.1326 4.5 11 4.5H0.5C0.367392 4.5 0.240215 4.44732 0.146447 4.35355C0.0526785 4.25979 0 4.13261 0 4Z" fill="#212121"/>
</svg>
