<svg width="19" height="31" viewBox="0 0 19 31" fill="none" xmlns="http://www.w3.org/2000/svg">
<path fill-rule="evenodd" clip-rule="evenodd" d="M8.43801 1.38988C8.56256 1.26502 8.71052 1.16595 8.87341 1.09836C9.0363 1.03076 9.21093 0.995972 9.38729 0.995972C9.56366 0.995972 9.73828 1.03076 9.90118 1.09836C10.0641 1.16595 10.212 1.26502 10.3366 1.38988L18.3814 9.43468C18.6331 9.68645 18.7746 10.0279 18.7746 10.384C18.7746 10.74 18.6331 11.0815 18.3814 11.3333C18.1296 11.585 17.7881 11.7265 17.4321 11.7265C17.076 11.7265 16.7346 11.585 16.4828 11.3333L10.7281 5.57586V29.1552C10.7281 29.5108 10.5868 29.8518 10.3354 30.1033C10.0839 30.3547 9.7429 30.496 9.38729 30.496C9.03169 30.496 8.69065 30.3547 8.43921 30.1033C8.18776 29.8518 8.04649 29.5108 8.04649 29.1552V5.57586L2.29178 11.3333C2.04001 11.585 1.69855 11.7265 1.34249 11.7265C0.986443 11.7265 0.644974 11.585 0.393208 11.3333C0.141441 11.0815 0 10.74 0 10.384C0 10.0279 0.141441 9.68645 0.393208 9.43468L8.43801 1.38988Z" fill="#632A6D"/>
</svg>
