<svg width="72" height="50" viewBox="0 0 72 50" fill="none" xmlns="http://www.w3.org/2000/svg">
<path fill-rule="evenodd" clip-rule="evenodd" d="M19.827 6.039C24.3247 2.16061 30.0611 0.0186233 36 0C48.105 0 58.1535 9 59.247 20.6055C66.411 21.618 72 27.6165 72 34.9785C72 43.0605 65.259 49.5 57.0915 49.5H45C44.4033 49.5 43.831 49.2629 43.409 48.841C42.9871 48.419 42.75 47.8467 42.75 47.25C42.75 46.6533 42.9871 46.081 43.409 45.659C43.831 45.2371 44.4033 45 45 45H57.096C62.9055 45 67.5 40.446 67.5 34.9785C67.5 29.5065 62.91 24.9525 57.0915 24.9525H54.8415V22.7025C54.846 12.7125 46.476 4.5 36 4.5C31.1394 4.51942 26.4458 6.27495 22.7655 9.45C19.359 12.384 17.577 15.921 17.577 18.6975V20.7135L15.5745 20.934C9.288 21.6225 4.5 26.784 4.5 32.931C4.5 39.5325 10.035 45 17.0145 45H27C27.5967 45 28.169 45.2371 28.591 45.659C29.0129 46.081 29.25 46.6533 29.25 47.25C29.25 47.8467 29.0129 48.419 28.591 48.841C28.169 49.2629 27.5967 49.5 27 49.5H17.0145C7.686 49.5 0 42.147 0 32.931C0 24.9975 5.697 18.4275 13.239 16.7625C13.8825 12.879 16.38 9.009 19.827 6.039Z" fill="#CCCCCC"/>
</svg>