<svg width="29" height="28" viewBox="0 0 29 28" fill="none" xmlns="http://www.w3.org/2000/svg">
<path fill-rule="evenodd" clip-rule="evenodd" d="M0 0H29V28H0V0Z" fill="white"/>
<path fill-rule="evenodd" clip-rule="evenodd" d="M1.27736 25.8124H1.19447C1.19447 25.7725 1.1737 25.7124 1.1737 25.6922C1.1737 25.6723 1.1737 25.6323 1.11142 25.6323H0.986847V25.8124H0.924561V25.3918H1.11142C1.19447 25.3918 1.2566 25.412 1.2566 25.4918C1.2566 25.552 1.23584 25.5722 1.21523 25.5919C1.23599 25.6121 1.2566 25.6322 1.2566 25.6723V25.7523C1.2566 25.7725 1.2566 25.7725 1.27736 25.7725V25.8124ZM1.19447 25.512C1.19447 25.4519 1.15294 25.4519 1.13218 25.4519H0.986847V25.5722H1.11142C1.15294 25.5722 1.19447 25.552 1.19447 25.512ZM1.54727 25.5921C1.54727 25.3518 1.3398 25.1512 1.06989 25.1512C0.820901 25.1512 0.613281 25.3518 0.613281 25.5921C0.613281 25.8525 0.820901 26.0531 1.06989 26.0531C1.33965 26.053 1.54727 25.8525 1.54727 25.5921ZM1.48498 25.5921C1.48498 25.8126 1.29828 25.9728 1.06989 25.9728C0.841513 25.9728 0.675567 25.8124 0.675567 25.5921C0.675567 25.3918 0.841663 25.2113 1.06989 25.2113C1.29813 25.2113 1.48498 25.3918 1.48498 25.5921ZM27.0544 17.4965C27.0544 18.0978 26.6601 18.378 25.9544 18.378H24.6056V17.7767H25.9544C26.0789 17.7767 26.1827 17.7568 26.2244 17.7169C26.2658 17.6766 26.3073 17.6165 26.3073 17.5365C26.3073 17.4561 26.2659 17.3761 26.2244 17.3361C26.1827 17.2959 26.0998 17.276 25.9753 17.276C25.3321 17.2558 24.5225 17.2959 24.5225 16.4143C24.5225 16.0134 24.7923 15.5725 25.5187 15.5725H26.9091V16.1738H25.6223C25.498 16.1738 25.4148 16.1738 25.3526 16.2137C25.2903 16.2739 25.2489 16.334 25.2489 16.4342C25.2489 16.5345 25.3112 16.5946 25.3941 16.6348C25.4773 16.6547 25.5603 16.6748 25.6641 16.6748H26.0376C26.4319 16.6748 26.681 16.7548 26.8471 16.8953C26.9714 17.0355 27.0544 17.216 27.0544 17.4965ZM24.128 16.8953C23.962 16.7548 23.7128 16.6748 23.3185 16.6748H22.9451C22.8414 16.6748 22.7582 16.6546 22.6753 16.6348C22.5921 16.5946 22.5301 16.5345 22.5301 16.4342C22.5301 16.334 22.5507 16.2739 22.6338 16.2137C22.6961 16.1738 22.779 16.1738 22.9035 16.1738H24.1903V15.5725H22.7999C22.0526 15.5725 21.8035 16.0134 21.8035 16.4143C21.8035 17.2958 22.613 17.2558 23.2565 17.276C23.3808 17.276 23.464 17.2959 23.5053 17.3361C23.5467 17.3761 23.5885 17.4561 23.5885 17.5365C23.5885 17.6165 23.5469 17.6766 23.5053 17.7169C23.4431 17.7568 23.3602 17.7767 23.2356 17.7767H21.8865V18.378H23.2356C23.941 18.378 24.3355 18.0976 24.3355 17.4965C24.3355 17.216 24.2526 17.0355 24.128 16.8953ZM21.4714 17.7971H19.8321V17.2359H21.43V16.6751H19.8321V16.1539H21.4714V15.5728H19.1471V18.3781H21.4714V17.7971ZM18.3998 15.7131C18.1715 15.5929 17.9017 15.5727 17.5489 15.5727H15.951V18.378H16.6564V17.356H17.4037C17.6526 17.356 17.798 17.3762 17.9019 17.4763C18.0264 17.6165 18.0264 17.8571 18.0264 18.0375V18.378H18.7111V17.8369C18.7111 17.5764 18.6905 17.4561 18.6075 17.316C18.5452 17.2356 18.4209 17.1355 18.2548 17.0754C18.4414 17.0156 18.7529 16.775 18.7529 16.334C18.7528 16.0135 18.6282 15.8331 18.3998 15.7131ZM14.4566 15.5727H12.2358L11.3433 16.4945L10.4924 15.5727H7.69057V18.378H10.451L11.3435 17.4561L12.1944 18.378H13.5435V17.4364H14.4152C15.017 17.4364 15.6191 17.276 15.6191 16.4945C15.6189 15.733 14.9962 15.5727 14.4566 15.5727ZM17.8394 16.7351C17.7358 16.775 17.632 16.775 17.5074 16.775L16.6564 16.7952V16.1537H17.5074C17.632 16.1537 17.7565 16.1537 17.8394 16.2139C17.9226 16.2541 17.9846 16.3341 17.9846 16.4544C17.9846 16.5747 17.9226 16.6749 17.8394 16.7351ZM14.4566 16.8752H13.5433V16.1537H14.4566C14.7057 16.1537 14.8717 16.2541 14.8717 16.4945C14.8717 16.7351 14.7056 16.8752 14.4566 16.8752ZM11.7792 16.9753L12.8583 15.8734V18.1377L11.7792 16.9753ZM10.0981 17.7971H8.37541V17.2359H9.9112V16.6751H8.37541V16.1539H10.1188L10.8867 16.9755L10.0981 17.7971ZM25.1242 13.5487H24.128L22.8205 11.4446V13.5487H21.4094L21.1394 12.9275H19.6866L19.4169 13.5487H18.6073C18.2753 13.5487 17.8394 13.4686 17.5906 13.228C17.3622 12.9876 17.2376 12.667 17.2376 12.166C17.2376 11.7452 17.2999 11.3645 17.611 11.0639C17.8185 10.8434 18.1922 10.7433 18.6694 10.7433H19.3335V11.3446H18.6694C18.4206 11.3446 18.2751 11.3846 18.1299 11.5049C18.0054 11.6252 17.9431 11.8456 17.9431 12.1461C17.9431 12.4467 18.0054 12.6672 18.1299 12.8075C18.2336 12.9076 18.4206 12.9477 18.6072 12.9477H18.9186L19.9147 10.7435H20.9525L22.1147 13.3885V10.7433H23.1941L24.4186 12.6871V10.7433H25.124V13.5487H25.1242ZM16.8848 10.7433H16.1794V13.5487H16.8848V10.7433ZM15.4112 10.8636C15.1828 10.7433 14.9339 10.7433 14.5811 10.7433H12.9829V13.5487H13.6678V12.5267H14.4149C14.664 12.5267 14.8301 12.5467 14.9338 12.647C15.0584 12.7873 15.0375 13.0278 15.0375 13.1881V13.5487H15.7429V12.9876C15.7429 12.7472 15.7223 12.6269 15.6186 12.4866C15.5564 12.4064 15.4318 12.3062 15.2866 12.2462C15.4732 12.166 15.7847 11.9456 15.7847 11.5048C15.7849 11.1842 15.6394 11.0038 15.4112 10.8636ZM12.4848 12.9677H10.8659V12.4066H12.464V11.8255H10.8659V11.3245H12.4848V10.7435H10.1603V13.5489H12.4848V12.9677ZM9.64144 10.7433H8.49998L7.64904 12.647L6.73581 10.7433H5.61512V13.3884L4.43213 10.7433H3.39449L2.14922 13.5487H2.89635L3.1661 12.9275H4.61884L4.8886 13.5487H6.29996V11.3446L7.31685 13.5487H7.91865L8.93568 11.3446V13.5487H9.64129V10.7433H9.64144ZM20.8905 12.3264L20.413 11.2243L19.9358 12.3264H20.8905ZM14.8717 11.8857C14.768 11.9458 14.6642 11.9458 14.5189 11.9458H13.6678V11.3247H14.5187C14.6433 11.3247 14.7883 11.3247 14.8715 11.3647C14.9544 11.4249 14.9961 11.5051 14.9961 11.6252C14.9961 11.7453 14.9546 11.8454 14.8717 11.8857ZM3.4151 12.3264L3.89247 11.2243L4.36985 12.3264H3.4151ZM26.8885 1.94629H2.12831V12.0459L2.97925 10.1823H4.78479L5.03393 10.6432V10.1823H7.1509L7.62828 11.1842L8.08489 10.1823H14.8301C15.1413 10.1823 15.411 10.2425 15.6188 10.4027V10.1823H17.4659V10.4027C17.777 10.2423 18.1713 10.1823 18.6281 10.1823H21.3053L21.5545 10.6432V10.1823H23.5261L23.8168 10.6432V10.1823H25.7467V14.1099H23.796L23.4226 13.5088V14.1099H20.9942L20.7244 13.4687H20.1223L19.8526 14.1099H18.5867C18.0886 14.1099 17.7148 13.9896 17.466 13.8695V14.1099H14.4566V13.2081C14.4566 13.0878 14.4358 13.0678 14.3528 13.0678H14.2491V14.1097H8.4377V13.6087L8.23023 14.1097H7.00572L6.79825 13.6288V14.1097H4.4529L4.2039 13.4686H3.60196L3.3322 14.1097H2.12831V25.9528H26.8885V18.7587C26.6187 18.879 26.245 18.9391 25.8715 18.9391H24.0658V18.6986C23.8583 18.8591 23.4846 18.9391 23.1319 18.9391H17.4451V18.0375C17.4451 17.9172 17.4245 17.9172 17.3205 17.9172H17.2169V18.9391H15.3489V17.8771C15.0378 18.0173 14.6848 18.0173 14.3735 18.0173H14.1659V18.9391H11.883L11.3435 18.3379L10.7417 18.9391H7.06786V15.0117H10.8037L11.3433 15.6126L11.9245 15.0117H14.4358C14.7262 15.0117 15.2037 15.0516 15.4112 15.2519V15.0117H17.6526C17.8809 15.0117 18.3169 15.0516 18.6073 15.2519V15.0117H21.9903V15.2521C22.1772 15.0917 22.5301 15.0118 22.8413 15.0118H24.7298V15.2521C24.9376 15.1119 25.228 15.0118 25.6017 15.0118H26.8885V1.94629Z" fill="#0077A6"/>
</svg>
