<svg width="16" height="17" viewBox="0 0 16 17" fill="none" xmlns="http://www.w3.org/2000/svg">
<path d="M8.78393 0.0367309C6.88809 -0.145334 4.98936 0.353443 3.42776 1.44374C1.86616 2.53403 0.743687 4.14463 0.261364 5.98711C-0.220959 7.82958 -0.0316312 9.78358 0.795442 11.4992C1.62251 13.2148 3.03331 14.5799 4.77518 15.3502C5.78397 15.8063 6.87523 16.0519 7.98218 16.0717C9.74441 16.0719 11.4576 15.4914 12.8568 14.4201C13.0257 14.2913 13.1366 14.1008 13.1651 13.8904C13.1937 13.68 13.1376 13.4668 13.0091 13.2977C12.9453 13.2129 12.8653 13.1417 12.7737 13.088C12.6822 13.0344 12.5809 12.9995 12.4757 12.9854C12.3706 12.9712 12.2637 12.978 12.1612 13.0055C12.0587 13.033 11.9627 13.0805 11.8787 13.1453C11.0472 13.7734 10.0751 14.1895 9.04669 14.3574C8.01824 14.5254 6.96435 14.4403 5.9762 14.1094C4.98805 13.7785 4.0954 13.2119 3.37548 12.4585C2.65556 11.7051 2.13005 10.7876 1.84441 9.78542C1.55878 8.78325 1.52162 7.72659 1.73616 6.70683C1.9507 5.68708 2.41048 4.73496 3.0757 3.93284C3.74093 3.13073 4.59158 2.50277 5.55405 2.1033C6.51652 1.70384 7.56182 1.5449 8.59953 1.64023C10.21 1.82663 11.6941 2.60365 12.7649 3.82099C13.8356 5.03834 14.4168 6.60951 14.3962 8.23061V8.7758C14.3953 8.95999 14.3572 9.1421 14.2844 9.31127C14.2115 9.48043 14.1053 9.63318 13.9721 9.7604C13.8389 9.88761 13.6814 9.98668 13.5091 10.0517C13.3368 10.1167 13.1531 10.1463 12.9691 10.1388C12.602 10.0985 12.2639 9.92055 12.0229 9.64083C11.7819 9.36112 11.6559 9.00044 11.6702 8.63149V5.16793C11.6702 4.95529 11.5858 4.75136 11.4354 4.60101C11.285 4.45065 11.0811 4.36618 10.8685 4.36618C10.6727 4.36452 10.4831 4.43454 10.3354 4.56303C10.1877 4.69152 10.0922 4.8696 10.0667 5.0637C9.32058 4.36103 8.33364 3.97084 7.30871 3.97332C6.61213 3.97854 5.92849 4.16199 5.32287 4.50619C4.71725 4.85038 4.20982 5.34388 3.84889 5.93968C3.48797 6.53548 3.28556 7.21375 3.26095 7.90991C3.23633 8.60608 3.39033 9.29695 3.70828 9.91675C4.02622 10.5366 4.49753 11.0647 5.07733 11.4508C5.65713 11.8369 6.32611 12.0681 7.02058 12.1226C7.71505 12.177 8.41188 12.0527 9.04473 11.7616C9.67758 11.4705 10.2254 11.0222 10.636 10.4595C10.8687 10.8195 11.1787 11.1231 11.5434 11.3484C11.9082 11.5736 12.3185 11.7148 12.7446 11.7616C13.1707 11.8084 13.6019 11.7598 14.0068 11.6191C14.4118 11.4785 14.7803 11.2494 15.0857 10.9485C15.3796 10.6689 15.6125 10.3316 15.7698 9.9577C15.927 9.58379 16.0053 9.1814 15.9997 8.7758V8.23061C16.0176 6.2158 15.2911 4.26528 13.9595 2.75315C12.6278 1.24101 10.7848 0.273697 8.78393 0.0367309ZM7.32475 10.5316C6.83476 10.5316 6.35578 10.3863 5.94837 10.1141C5.54096 9.8419 5.22343 9.45498 5.03592 9.00229C4.84841 8.5496 4.79935 8.05148 4.89494 7.57091C4.99053 7.09034 5.22648 6.64891 5.57295 6.30244C5.91943 5.95597 6.36086 5.72002 6.84143 5.62442C7.322 5.52883 7.82012 5.57789 8.27281 5.7654C8.72549 5.95291 9.11241 6.27045 9.38463 6.67785C9.65685 7.08526 9.80215 7.56424 9.80215 8.05423C9.80004 8.71063 9.53835 9.33954 9.0742 9.80368C8.61005 10.2678 7.98114 10.5295 7.32475 10.5316Z" fill="#6E6F78"/>
</svg>
