<svg width="18" height="20" viewBox="0 0 18 20" fill="none" xmlns="http://www.w3.org/2000/svg">
<path d="M17.1629 14.152C16.4083 13.341 14.9961 12.1211 14.9961 8.125C14.9961 5.08984 12.868 2.66016 9.9985 2.06406V1.25C9.9985 0.559766 9.43913 0 8.74928 0C8.05944 0 7.50006 0.559766 7.50006 1.25V2.06406C4.63054 2.66016 2.50242 5.08984 2.50242 8.125C2.50242 12.1211 1.09031 13.341 0.335622 14.152C0.101248 14.4039 -0.00265854 14.7051 -0.000705415 15C0.00359145 15.6406 0.506325 16.25 1.2532 16.25H16.2454C16.9922 16.25 17.4954 15.6406 17.4993 15C17.5012 14.7051 17.3973 14.4035 17.1629 14.152ZM2.63718 14.375C3.46609 13.2824 4.37234 11.4715 4.37663 8.14766C4.37663 8.13984 4.37429 8.13281 4.37429 8.125C4.37429 5.70859 6.33288 3.75 8.74928 3.75C11.1657 3.75 13.1243 5.70859 13.1243 8.125C13.1243 8.13281 13.1219 8.13984 13.1219 8.14766C13.1262 11.4719 14.0325 13.2828 14.8614 14.375H2.63718ZM8.74928 20C10.129 20 11.2481 18.8809 11.2481 17.5H6.25046C6.25046 18.8809 7.3696 20 8.74928 20Z" fill="#212121"/>
</svg>
