<svg width="16" height="16" viewBox="0 0 16 16" fill="none" xmlns="http://www.w3.org/2000/svg">
<path d="M7.25825 2.24444C8.22097 2.24356 9.16233 2.52824 9.96323 3.06246C10.7641 3.59668 11.3886 4.35644 11.7576 5.24563C12.1267 6.13482 12.2237 7.11348 12.0364 8.05782C11.8491 9.00215 11.386 9.86973 10.7055 10.5508C10.0251 11.2318 9.15793 11.6958 8.21377 11.8839C7.26961 12.0721 6.29086 11.976 5.40133 11.6077C4.5118 11.2395 3.75147 10.6158 3.21652 9.81534C2.68156 9.01493 2.39603 8.07383 2.39603 7.11111C2.40186 5.82295 2.91587 4.58916 3.82632 3.67787C4.73678 2.76658 5.9701 2.25145 7.25825 2.24444ZM7.25825 1.33333C6.11551 1.33333 4.99844 1.67219 4.04829 2.30706C3.09814 2.94193 2.35758 3.8443 1.92028 4.90005C1.48297 5.9558 1.36855 7.11752 1.59149 8.2383C1.81443 9.35907 2.36471 10.3886 3.17274 11.1966C3.98078 12.0046 5.01028 12.5549 6.13106 12.7779C7.25184 13.0008 8.41356 12.8864 9.46931 12.4491C10.5251 12.0118 11.4274 11.2712 12.0623 10.3211C12.6972 9.37092 13.036 8.25384 13.036 7.11111C13.036 5.57874 12.4273 4.10914 11.3438 3.0256C10.2602 1.94206 8.79061 1.33333 7.25825 1.33333Z" fill="#6E6F78"/>
<path d="M15.5551 14.7956L12.2795 11.4978L11.6484 12.1244L14.924 15.4222C14.9651 15.4637 15.014 15.4966 15.0679 15.5191C15.1218 15.5417 15.1796 15.5534 15.238 15.5536C15.2964 15.5538 15.3542 15.5425 15.4083 15.5203C15.4623 15.4982 15.5114 15.4656 15.5529 15.4244C15.5943 15.3833 15.6272 15.3344 15.6498 15.2805C15.6723 15.2266 15.684 15.1689 15.6842 15.1105C15.6844 15.0521 15.6731 14.9942 15.651 14.9402C15.6288 14.8861 15.5963 14.837 15.5551 14.7956Z" fill="#6E6F78"/>
</svg>
