<svg width="18" height="17" viewBox="0 0 18 17" fill="none" xmlns="http://www.w3.org/2000/svg">
<mask id="mask0" mask-type="alpha" maskUnits="userSpaceOnUse" x="0" y="0" width="18" height="17">
<path fill-rule="evenodd" clip-rule="evenodd" d="M2.125 17C2.125 17 0.75 17 0.75 15.625C0.75 14.25 2.125 10.125 9 10.125C15.875 10.125 17.25 14.25 17.25 15.625C17.25 17 15.875 17 15.875 17H2.125ZM9 8.75C10.094 8.75 11.1432 8.3154 11.9168 7.54182C12.6904 6.76823 13.125 5.71902 13.125 4.625C13.125 3.53098 12.6904 2.48177 11.9168 1.70818C11.1432 0.934597 10.094 0.5 9 0.5C7.90598 0.5 6.85677 0.934597 6.08318 1.70818C5.3096 2.48177 4.875 3.53098 4.875 4.625C4.875 5.71902 5.3096 6.76823 6.08318 7.54182C6.85677 8.3154 7.90598 8.75 9 8.75Z" fill="#C75353"/>
</mask>
<g mask="url(#mask0)">
<circle cx="9" cy="8" r="9" fill="white"/>
</g>
</svg>
