<svg xmlns="http://www.w3.org/2000/svg" width="209" height="209" viewBox="0 0 209 209" fill="none">
    <circle cx="104.5" cy="91.6473" r="44.741" fill="#F1F1F1"/>
    <rect x="86.948" y="90.7345" width="43.8024" height="61.3234" rx="4.38024" transform="rotate(2.5 86.948 90.7345)" fill="#EEEEEE" stroke="#999999" stroke-width="1.2515"/>
    <rect x="60.9078" y="87.0668" width="46.3054" height="63.8263" rx="5.63174" transform="rotate(-7.5 60.9078 87.0668)" fill="#FAFAFA" stroke="#999999" stroke-width="1.2515"/>
    <path d="M62.2633 92.5686C61.9024 89.8276 63.8319 87.3129 66.573 86.9521L101.315 82.3782C104.056 82.0173 106.571 83.9468 106.932 86.6879L108.157 95.9938L63.4884 101.875L62.2633 92.5686Z" fill="#EEEEEE"/>
    <rect x="115.993" y="83.6016" width="1.87725" height="6.25748" rx="0.938623" transform="rotate(82.5 115.993 83.6016)" fill="#999999"/>
    <rect x="98.8492" y="73.2383" width="1.87725" height="6.25748" rx="0.938623" transform="rotate(-7.5 98.8492 73.2383)" fill="#999999"/>
    <rect x="109.848" y="74.9453" width="1.87725" height="6.25748" rx="0.938623" transform="rotate(37.5 109.848 74.9453)" fill="#999999"/>
    <rect x="68.1579" y="103.785" width="36.2934" height="2.50299" rx="1.2515" transform="rotate(-7.5 68.1579 103.785)" fill="#DCDCDC"/>
    <rect x="69.7914" y="116.195" width="36.2934" height="2.50299" rx="1.2515" transform="rotate(-7.5 69.7914 116.195)" fill="#DCDCDC"/>
    <rect x="71.4249" y="128.602" width="36.2934" height="2.50299" rx="1.2515" transform="rotate(-7.5 71.4249 128.602)" fill="#DCDCDC"/>
    <rect x="68.8113" y="108.75" width="13.1407" height="2.50299" rx="1.2515" transform="rotate(-7.5 68.8113 108.75)" fill="#EEEEEE"/>
    <rect x="70.4449" y="121.156" width="13.1407" height="2.50299" rx="1.2515" transform="rotate(-7.5 70.4449 121.156)" fill="#EEEEEE"/>
    <rect x="72.0784" y="133.566" width="13.1407" height="2.50299" rx="1.2515" transform="rotate(-7.5 72.0784 133.566)" fill="#EEEEEE"/>
</svg>