<svg width="40" height="40" viewBox="0 0 40 40" fill="none" xmlns="http://www.w3.org/2000/svg">
<circle cx="20" cy="20" r="20" fill="#F0FFEF"/>
<g clip-path="url(#clip0_3927_51575)">
<path d="M26.2864 18.8334L27.2213 19.3941C27.279 19.4287 27.3268 19.4776 27.3599 19.536C27.393 19.5945 27.4105 19.6606 27.4105 19.7278C27.4105 19.795 27.393 19.8611 27.3599 19.9196C27.3268 19.9781 27.279 20.0269 27.2213 20.0615L19.9997 24.3945L12.778 20.0615C12.7203 20.0269 12.6726 19.9781 12.6394 19.9196C12.6063 19.8611 12.5889 19.795 12.5889 19.7278C12.5889 19.6606 12.6063 19.5945 12.6394 19.536C12.6726 19.4776 12.7203 19.4287 12.778 19.3941L13.7129 18.8334L19.9997 22.6056L26.2864 18.8334ZM26.2864 22.4889L27.2213 23.0497C27.279 23.0842 27.3268 23.1331 27.3599 23.1916C27.393 23.2501 27.4105 23.3161 27.4105 23.3834C27.4105 23.4506 27.393 23.5167 27.3599 23.5751C27.3268 23.6336 27.279 23.6825 27.2213 23.717L20.4002 27.8097C20.2793 27.8824 20.1408 27.9208 19.9997 27.9208C19.8585 27.9208 19.7201 27.8824 19.5991 27.8097L12.778 23.717C12.7203 23.6825 12.6726 23.6336 12.6394 23.5751C12.6063 23.5167 12.5889 23.4506 12.5889 23.3834C12.5889 23.3161 12.6063 23.2501 12.6394 23.1916C12.6726 23.1331 12.7203 23.0842 12.778 23.0497L13.7129 22.4889L19.9997 26.2611L26.2864 22.4889ZM20.3994 11.6848L27.2213 15.7775C27.279 15.812 27.3268 15.8609 27.3599 15.9194C27.393 15.9778 27.4105 16.0439 27.4105 16.1111C27.4105 16.1784 27.393 16.2444 27.3599 16.3029C27.3268 16.3614 27.279 16.4103 27.2213 16.4448L19.9997 20.7778L12.778 16.4448C12.7203 16.4103 12.6726 16.3614 12.6394 16.3029C12.6063 16.2444 12.5889 16.1784 12.5889 16.1111C12.5889 16.0439 12.6063 15.9778 12.6394 15.9194C12.6726 15.8609 12.7203 15.812 12.778 15.7775L19.5991 11.6848C19.7201 11.6121 19.8585 11.5737 19.9997 11.5737C20.1408 11.5737 20.2793 11.6121 20.4002 11.6848H20.3994Z" fill="#00F244"/>
</g>
<defs>
<clipPath id="clip0_3927_51575">
<rect width="18.6667" height="18.6667" fill="white" transform="translate(10.6665 10.6667)"/>
</clipPath>
</defs>
</svg>
