<svg width="20" height="20" viewBox="0 0 20 20" fill="none" xmlns="http://www.w3.org/2000/svg">
<path d="M15.07 5.75888C15.7211 5.75888 16.249 5.23102 16.249 4.57988C16.249 3.92873 15.7211 3.40088 15.07 3.40088C14.4188 3.40088 13.891 3.92873 13.891 4.57988C13.891 5.23102 14.4188 5.75888 15.07 5.75888Z" fill="white"/>
<path d="M9.82639 4.78052C8.82856 4.78052 7.85313 5.07641 7.02346 5.63078C6.19379 6.18514 5.54715 6.97309 5.16529 7.89497C4.78344 8.81684 4.68353 9.83125 4.87819 10.8099C5.07286 11.7886 5.55336 12.6875 6.25894 13.3931C6.96451 14.0987 7.86347 14.5792 8.84213 14.7739C9.82079 14.9685 10.8352 14.8686 11.7571 14.4868C12.679 14.1049 13.4669 13.4583 14.0213 12.6286C14.5756 11.7989 14.8715 10.8235 14.8715 9.82566C14.8715 8.4876 14.34 7.20435 13.3938 6.2582C12.4477 5.31206 11.1644 4.78052 9.82639 4.78052ZM9.82639 13.1007C9.17866 13.1007 8.54547 12.9086 8.0069 12.5487C7.46833 12.1889 7.04856 11.6774 6.80068 11.0789C6.55281 10.4805 6.48795 9.82202 6.61432 9.18674C6.74068 8.55145 7.0526 7.9679 7.51062 7.50988C7.96863 7.05186 8.55218 6.73995 9.18747 6.61358C9.82276 6.48722 10.4813 6.55207 11.0797 6.79995C11.6781 7.04783 12.1896 7.46759 12.5495 8.00616C12.9093 8.54473 13.1014 9.17792 13.1014 9.82566C13.1014 10.6942 12.7563 11.5272 12.1422 12.1414C11.528 12.7556 10.695 13.1007 9.82639 13.1007Z" fill="white"/>
<path d="M9.825 1.77014C12.4483 1.77014 12.7594 1.77996 13.7951 1.82745C14.4181 1.83485 15.0351 1.94922 15.6193 2.16559C16.0431 2.32909 16.428 2.57951 16.7493 2.90073C17.0705 3.22196 17.3209 3.60687 17.4844 4.03071C17.7008 4.61491 17.8152 5.23194 17.8225 5.85488C17.87 6.8906 17.8799 7.20172 17.8799 9.82582C17.8799 12.4499 17.87 12.7594 17.8225 13.7951C17.8152 14.4181 17.7008 15.0351 17.4844 15.6193C17.3209 16.0431 17.0705 16.428 16.7493 16.7493C16.428 17.0705 16.0431 17.3209 15.6193 17.4844C15.0351 17.7008 14.4181 17.8152 13.7951 17.8225C12.7594 17.87 12.4483 17.8799 9.825 17.8799C7.20172 17.8799 6.8906 17.87 5.85488 17.8225C5.23194 17.8152 4.61491 17.7008 4.03071 17.4844C3.60687 17.3209 3.22196 17.0705 2.90073 16.7493C2.57951 16.428 2.32909 16.0431 2.16559 15.6193C1.94922 15.0351 1.83485 14.4181 1.82745 13.7951C1.77996 12.7594 1.77014 12.4483 1.77014 9.825C1.77014 7.20172 1.77996 6.8906 1.82745 5.85488C1.83485 5.23194 1.94922 4.61491 2.16559 4.03071C2.32909 3.60687 2.57951 3.22196 2.90073 2.90073C3.22196 2.57951 3.60687 2.32909 4.03071 2.16559C4.61491 1.94922 5.23194 1.83485 5.85488 1.82745C6.8906 1.77996 7.20172 1.77014 9.825 1.77014ZM9.825 0C7.15669 0 6.82182 0.0114625 5.77382 0.05895C4.95898 0.0754037 4.15283 0.22988 3.38963 0.515813C2.73686 0.768231 2.14403 1.15426 1.64914 1.64914C1.15426 2.14403 0.768231 2.73686 0.515813 3.38963C0.229789 4.15309 0.0753114 4.95953 0.05895 5.77464C0.0114625 6.82264 0 7.15587 0 9.825C0 12.4941 0.0114625 12.8282 0.05895 13.8762C0.0754037 14.691 0.22988 15.4972 0.515813 16.2604C0.768231 16.9131 1.15426 17.506 1.64914 18.0009C2.14403 18.4957 2.73686 18.8818 3.38963 19.1342C4.15309 19.4202 4.95953 19.5747 5.77464 19.591C6.82264 19.6385 7.15669 19.65 9.825 19.65C12.4933 19.65 12.8282 19.6385 13.8762 19.591C14.6913 19.5747 15.4977 19.4202 16.2612 19.1342C16.914 18.8818 17.5068 18.4957 18.0017 18.0009C18.4966 17.506 18.8826 16.9131 19.135 16.2604C19.4207 15.4969 19.5749 14.6904 19.591 13.8754C19.6385 12.8274 19.65 12.4941 19.65 9.825C19.65 7.15587 19.6385 6.82182 19.591 5.77382C19.5746 4.95898 19.4201 4.15283 19.1342 3.38963C18.8818 2.73686 18.4957 2.14403 18.0009 1.64914C17.506 1.15426 16.9131 0.768231 16.2604 0.515813C15.4969 0.230069 14.6904 0.0758679 13.8754 0.0597687C12.8274 0.0106437 12.4941 0 9.825 0Z" fill="white"/>
</svg>
