<svg width="44" height="44" viewBox="0 0 44 44" fill="none" xmlns="http://www.w3.org/2000/svg">
<g clip-path="url(#clip0)">
<path d="M20.3017 29.8431C20.6377 29.5071 20.6377 28.9633 20.3017 28.6272C19.9654 28.2922 19.4205 28.2922 19.0838 28.6272C18.7481 28.9633 18.7481 29.5071 19.0838 29.8431C19.4205 30.1781 19.9654 30.1781 20.3017 29.8431Z" fill="#632A6D"/>
<path d="M16.2266 9.45044C16.2266 14.6614 20.4743 18.9012 25.6955 18.9012C30.9167 18.9012 35.1644 14.6614 35.1644 9.45044C35.1644 4.23947 30.9167 0 25.6955 0C20.4743 0 16.2266 4.23947 16.2266 9.45044ZM33.443 9.45044C33.443 13.7141 29.9675 17.1828 25.6955 17.1828C21.4235 17.1828 17.948 13.7141 17.948 9.45044C17.948 5.18714 21.4235 1.71842 25.6955 1.71842C29.9675 1.71842 33.443 5.18714 33.443 9.45044Z" fill="#632A6D"/>
<path d="M9.96011 43.7458C10.2938 44.0815 10.837 44.0852 11.175 43.7528L15.3484 39.6493C16.0575 38.9417 16.2731 37.894 15.9613 36.9832L16.859 36.1192C17.3423 35.6532 17.9787 35.3964 18.6514 35.3964H30.095C32.1253 35.3964 34.0441 34.6183 35.4988 33.2054C35.5587 33.1473 35.0444 33.7519 43.3059 23.8972C44.5312 22.4504 44.3479 20.2778 42.8969 19.0535C41.4549 17.8407 39.2949 18.0149 38.0662 19.4369L32.9866 24.6475C32.3452 23.8596 31.3671 23.3685 30.3103 23.3685H20.7112C19.3453 22.7982 17.896 22.5095 16.4005 22.5095C12.2554 22.5095 8.6359 24.4203 6.69347 28.0028C5.87513 27.848 5.01206 28.0951 4.39116 28.7148L0.296092 32.8139C-0.0382402 33.1486 -0.0389128 33.6901 0.294747 34.0258L9.96011 43.7458ZM16.4002 24.2276C17.7187 24.2276 18.9935 24.4924 20.1899 25.0148C20.2988 25.0624 20.4162 25.0869 20.535 25.0869H30.3103C31.2437 25.0869 32.0321 25.8466 32.0321 26.805C32.0321 27.7527 31.2598 28.5234 30.3103 28.5234H23.287C22.8117 28.5234 22.4263 28.9081 22.4263 29.3825C22.4263 29.8571 22.8117 30.2415 23.287 30.2415H30.3103C32.209 30.2415 33.7535 28.7 33.7535 26.805C33.7535 26.654 33.7428 26.5042 33.7233 26.3559C38.637 21.3148 39.3299 20.6064 39.3595 20.5712C39.973 19.8484 41.0621 19.7568 41.7866 20.3664C42.5118 20.9784 42.6036 22.0647 41.9884 22.7915L34.2675 32.0036C33.14 33.0838 31.6597 33.6783 30.095 33.6783H18.6514C17.53 33.6783 16.4685 34.1064 15.6633 34.8828L14.9317 35.5874L8.18788 28.8571C9.76402 25.906 12.7215 24.2276 16.4002 24.2276ZM5.60942 29.929C5.8933 29.6457 6.32921 29.5946 6.67531 29.8081C6.82432 29.8988 6.39648 29.51 14.1312 37.2189C14.4753 37.5623 14.4568 38.1095 14.1359 38.4298L10.578 41.928L2.11978 33.4219L5.60942 29.929Z" fill="#632A6D"/>
<path d="M24.6635 4.2959V5.30264C23.6615 5.65714 22.9417 6.61218 22.9417 7.73239C22.9417 9.15338 24.1001 10.3098 25.5242 10.3098C25.9988 10.3098 26.385 10.6952 26.385 11.1689C26.385 11.6426 25.9988 12.0279 25.5242 12.0279C25.1566 12.0279 24.7594 11.7973 24.4066 11.378C24.1005 11.0148 23.5576 10.9681 23.1937 11.2733C22.8297 11.5788 22.7827 12.1206 23.0887 12.4838C23.5489 13.03 24.09 13.4106 24.6635 13.6027V14.6054C24.6635 15.0801 25.049 15.4644 25.5242 15.4644C25.9995 15.4644 26.385 15.0801 26.385 14.6054V13.5986C27.387 13.2438 28.1067 12.2888 28.1067 11.1689C28.1067 9.74756 26.9484 8.59143 25.5242 8.59143C25.0497 8.59143 24.6635 8.20606 24.6635 7.73239C24.6635 7.25873 25.0497 6.87302 25.5242 6.87302C25.8293 6.87302 26.1512 7.02844 26.4553 7.32218C26.797 7.65216 27.3419 7.6431 27.6725 7.30237C28.0031 6.96131 27.9941 6.41748 27.6527 6.0875C27.2158 5.66553 26.7785 5.42685 26.385 5.2966V4.2959C26.385 3.82123 25.9995 3.43652 25.5242 3.43652C25.049 3.43652 24.6635 3.82123 24.6635 4.2959Z" fill="#632A6D"/>
</g>
<defs>
<clipPath id="clip0">
<rect width="44" height="44" fill="white"/>
</clipPath>
</defs>
</svg>
