<svg width="35" height="25" viewBox="0 0 35 25" fill="none" xmlns="http://www.w3.org/2000/svg">
<path d="M31.1719 0.46875H3.82812C1.71732 0.46875 0 2.18607 0 4.29688V20.7031C0 22.8139 1.71732 24.5312 3.82812 24.5312H31.1719C33.2827 24.5312 35 22.8139 35 20.7031V4.29688C35 2.18607 33.2827 0.46875 31.1719 0.46875ZM3.82812 2.65625H31.1719C32.0765 2.65625 32.8125 3.39228 32.8125 4.29688V6.48438H2.1875V4.29688C2.1875 3.39228 2.92353 2.65625 3.82812 2.65625ZM31.1719 22.3438H3.82812C2.92353 22.3438 2.1875 21.6077 2.1875 20.7031V8.67188H32.8125V20.7031C32.8125 21.6077 32.0765 22.3438 31.1719 22.3438Z" fill="#212121"/>
</svg>
