<svg width="32" height="24" viewBox="0 0 32 24" fill="none" xmlns="http://www.w3.org/2000/svg">
<g clip-path="url(#clip0)">
<path d="M31.3687 23.6748V23.7365H31.4284C31.4396 23.7367 31.4507 23.734 31.4604 23.7286C31.4643 23.726 31.4674 23.7224 31.4695 23.7183C31.4716 23.7142 31.4726 23.7096 31.4724 23.705C31.4726 23.7005 31.4716 23.6961 31.4695 23.692C31.4674 23.688 31.4643 23.6846 31.4604 23.6821C31.4508 23.6765 31.4396 23.6737 31.4284 23.6742H31.3687V23.6748ZM31.429 23.6312C31.4546 23.6296 31.48 23.6367 31.5007 23.6512C31.5091 23.6578 31.5157 23.6662 31.52 23.6756C31.5244 23.6851 31.5264 23.6955 31.5259 23.7058C31.5262 23.7147 31.5246 23.7236 31.5212 23.7319C31.5177 23.7402 31.5124 23.7476 31.5057 23.7538C31.4897 23.7672 31.4696 23.7753 31.4484 23.7768L31.5284 23.8647H31.4668L31.3932 23.7774H31.3694V23.8647H31.3179V23.6313H31.4298L31.429 23.6312ZM31.413 23.9452C31.4401 23.9454 31.4668 23.9402 31.4916 23.9298C31.5155 23.9199 31.5372 23.9057 31.5556 23.888C31.574 23.8703 31.5888 23.8493 31.599 23.8263C31.62 23.7774 31.62 23.7225 31.599 23.6736C31.5886 23.6506 31.5739 23.6297 31.5556 23.6119C31.5372 23.5942 31.5155 23.58 31.4916 23.5701C31.4667 23.5602 31.44 23.5553 31.413 23.5556C31.3857 23.5553 31.3585 23.5603 31.333 23.5701C31.3086 23.5798 31.2864 23.594 31.2676 23.6119C31.2393 23.6399 31.2202 23.6753 31.2126 23.7137C31.205 23.7521 31.2093 23.7918 31.2249 23.8278C31.2346 23.851 31.2492 23.872 31.2676 23.8895C31.2864 23.9074 31.3086 23.9216 31.333 23.9313C31.3583 23.9417 31.3856 23.947 31.413 23.9467V23.9452ZM31.413 23.4994C31.4834 23.4994 31.5509 23.526 31.601 23.5735C31.6252 23.5963 31.6445 23.6235 31.6577 23.6535C31.6714 23.6844 31.6784 23.7176 31.6784 23.7511C31.6784 23.7846 31.6714 23.8178 31.6577 23.8486C31.6442 23.8785 31.625 23.9057 31.601 23.9287C31.5765 23.9514 31.5479 23.9697 31.5167 23.9827C31.4839 23.9961 31.4487 24.0029 31.413 24.0027C31.377 24.003 31.3413 23.9962 31.3081 23.9827C31.2765 23.97 31.2477 23.9517 31.2231 23.9287C31.1992 23.9048 31.1803 23.8768 31.1673 23.846C31.1536 23.8152 31.1466 23.782 31.1466 23.7485C31.1466 23.7149 31.1536 23.6817 31.1673 23.6509C31.1805 23.6209 31.1997 23.5937 31.2239 23.5709C31.2482 23.5475 31.2771 23.5291 31.3089 23.5169C31.3421 23.5034 31.3778 23.4966 31.4138 23.4968L31.413 23.4994ZM6.91385 22.5982C6.91385 22.1532 7.21625 21.7877 7.71049 21.7877C8.18281 21.7877 8.50153 22.1375 8.50153 22.5982C8.50153 23.0589 8.18281 23.4087 7.71049 23.4087C7.21625 23.4087 6.91385 23.0432 6.91385 22.5982ZM9.03993 22.5982V21.3319H8.46889V21.6404C8.28777 21.4124 8.01305 21.2694 7.63945 21.2694C6.90345 21.2694 6.32585 21.8259 6.32585 22.5988C6.32585 23.3717 6.90313 23.9282 7.63945 23.9282C8.01289 23.9282 8.28777 23.7851 8.46889 23.5573V23.8647H9.03929V22.5982H9.03993ZM28.3346 22.5982C28.3346 22.1532 28.637 21.7877 29.1314 21.7877C29.6042 21.7877 29.9225 22.1375 29.9225 22.5982C29.9225 23.0589 29.6042 23.4087 29.1314 23.4087C28.6372 23.4087 28.3346 23.0432 28.3346 22.5982ZM30.4614 22.5982V20.3154H29.8898V21.6404C29.7087 21.4124 29.434 21.2694 29.0604 21.2694C28.3244 21.2694 27.7468 21.8259 27.7468 22.5988C27.7468 23.3717 28.3241 23.9282 29.0604 23.9282C29.434 23.9282 29.7087 23.7851 29.8898 23.5573V23.8647H30.4614V22.5982ZM16.1273 21.7616C16.4953 21.7616 16.7316 21.984 16.7919 22.3756H15.4294C15.4903 22.0101 15.7206 21.7616 16.1274 21.7616H16.1273ZM16.1388 21.268C15.3692 21.268 14.8308 21.8079 14.8308 22.5974C14.8308 23.4024 15.3908 23.9268 16.177 23.9268C16.5726 23.9268 16.9348 23.8317 17.2535 23.5721L16.9737 23.1641C16.7535 23.3338 16.4732 23.429 16.2097 23.429C15.8417 23.429 15.5066 23.2647 15.4242 22.8089H17.3742C17.3798 22.7404 17.3855 22.6713 17.3855 22.5973C17.3798 21.808 16.8735 21.2679 16.1385 21.2679L16.1388 21.268ZM23.0329 22.5973C23.0329 22.1523 23.3353 21.7867 23.8295 21.7867C24.3018 21.7867 24.6206 22.1366 24.6206 22.5973C24.6206 23.058 24.3018 23.4078 23.8295 23.4078C23.3353 23.4078 23.0327 23.0423 23.0327 22.5973H23.0329ZM25.1588 22.5973V21.3319H24.5881V21.6404C24.4063 21.4124 24.1322 21.2694 23.7586 21.2694C23.0226 21.2694 22.445 21.8259 22.445 22.5988C22.445 23.3717 23.0223 23.9282 23.7586 23.9282C24.1322 23.9282 24.4063 23.7851 24.5881 23.5573V23.8647H25.159V22.5982L25.1588 22.5973ZM19.8081 22.5973C19.8081 23.3653 20.3626 23.9267 21.209 23.9267C21.6046 23.9267 21.8681 23.8419 22.153 23.6248L21.8788 23.1799C21.6644 23.3284 21.4393 23.4078 21.1908 23.4078C20.735 23.4024 20.3998 23.0847 20.3998 22.5973C20.3998 22.1099 20.735 21.7923 21.1908 21.7867C21.4386 21.7867 21.6638 21.8662 21.8788 22.0147L22.153 21.5697C21.8676 21.3527 21.6041 21.2679 21.209 21.2679C20.3626 21.2679 19.8081 21.8292 19.8081 22.5973ZM27.1697 21.2679C26.8403 21.2679 26.6257 21.4164 26.4774 21.6388V21.3319H25.9114V23.8633H26.4831V22.4443C26.4831 22.0254 26.6698 21.7926 27.0431 21.7926C27.1654 21.7909 27.2867 21.8126 27.4002 21.8563L27.5762 21.3374C27.4498 21.2895 27.285 21.2683 27.1694 21.2683L27.1697 21.2679ZM11.8631 21.5332C11.5884 21.3586 11.2098 21.2683 10.7922 21.2683C10.127 21.2683 9.69865 21.5757 9.69865 22.0787C9.69865 22.4915 10.0175 22.7461 10.6047 22.8256L10.8745 22.8626C11.1876 22.905 11.3354 22.9844 11.3354 23.1274C11.3354 23.3231 11.1274 23.4348 10.7369 23.4348C10.3414 23.4348 10.0559 23.313 9.86345 23.17L9.59513 23.5992C9.90825 23.8217 10.3038 23.9278 10.7321 23.9278C11.4905 23.9278 11.93 23.5835 11.93 23.1015C11.93 22.6565 11.5841 22.4238 11.0126 22.3443L10.7434 22.3067C10.4962 22.2758 10.2982 22.2279 10.2982 22.0582C10.2982 21.8731 10.4849 21.7618 10.7982 21.7618C11.1334 21.7618 11.4578 21.8836 11.6169 21.9788L11.8641 21.5338L11.8631 21.5332ZM19.2313 21.2688C18.9018 21.2688 18.6873 21.4173 18.5396 21.6397V21.3319H17.9737V23.8633H18.5447V22.4443C18.5447 22.0254 18.7314 21.7926 19.1047 21.7926C19.227 21.7909 19.3483 21.8126 19.4619 21.8563L19.6378 21.3374C19.5114 21.2895 19.3466 21.2683 19.231 21.2683L19.2313 21.2688ZM14.3583 21.3319H13.4246V20.5639H12.8473V21.3319H12.3146V21.835H12.8473V22.9898C12.8473 23.5772 13.0838 23.927 13.7593 23.927C14.0071 23.927 14.2926 23.853 14.4737 23.7313L14.3087 23.2599C14.1383 23.3551 13.9516 23.403 13.8031 23.403C13.5177 23.403 13.4246 23.2334 13.4246 22.9793V21.8355H14.3583V21.3319ZM5.82089 23.8639V22.2752C5.82089 21.6769 5.42537 21.2744 4.78777 21.269C4.45257 21.2636 4.10681 21.3641 3.86473 21.7193C3.68361 21.4386 3.39817 21.269 2.99689 21.269C2.71641 21.269 2.44233 21.3484 2.22777 21.6448V21.3319H1.65625V23.8633H2.23225V22.4597C2.23225 22.0203 2.48505 21.7867 2.87545 21.7867C3.25465 21.7867 3.44649 22.025 3.44649 22.4541V23.863H4.02377V22.4594C4.02377 22.02 4.28729 21.7864 4.66633 21.7864C5.05625 21.7864 5.24233 22.0247 5.24233 22.4538V23.8627L5.82089 23.8639Z" fill="#231F20"/>
<path d="M31.6948 15.4434V15.0732H31.5948L31.4791 15.3273L31.364 15.0732H31.2637V15.4434H31.3348V15.1646L31.4429 15.4052H31.5165L31.6247 15.1639V15.4434H31.6951H31.6948ZM31.0604 15.4434V15.1366H31.1884V15.0742H30.8613V15.1366H30.9893V15.4434H31.0597H31.0604Z" fill="#F79410"/>
<path d="M20.3295 17.0304H11.6758V2.03809H20.3297L20.3295 17.0304Z" fill="#FF5F00"/>
<path d="M12.224 9.53379C12.224 6.49261 13.7011 3.78351 16.0013 2.03765C14.2602 0.714171 12.1067 -0.00412443 9.88944 -0.000966192C4.42752 -0.000966192 0 4.26782 0 9.53379C0 14.7998 4.42752 19.0685 9.88944 19.0685C12.1068 19.0717 14.2603 18.3534 16.0014 17.0299C13.7014 15.2844 12.224 12.5751 12.224 9.53379Z" fill="#EB001B"/>
<path d="M32.0042 9.53477C32.0042 14.8007 27.5767 19.0695 22.1148 19.0695C19.8972 19.0727 17.7434 18.3544 16.002 17.0309C18.3028 15.285 19.7799 12.5761 19.7799 9.53477C19.7799 6.49343 18.3028 3.78448 16.002 2.03862C17.7434 0.715187 19.8971 -0.00309251 22.1146 1.00087e-05C27.5765 1.00087e-05 32.004 4.2688 32.004 9.53477" fill="#F79E1B"/>
</g>
<defs>
<clipPath id="clip0">
<rect width="32" height="24" fill="white"/>
</clipPath>
</defs>
</svg>
