<svg width="14" height="14" viewBox="0 0 14 14" fill="none" xmlns="http://www.w3.org/2000/svg">
<path d="M6.9987 13.6667C3.3167 13.6667 0.332031 10.682 0.332031 7.00001C0.332031 3.31801 3.3167 0.333344 6.9987 0.333344C10.6807 0.333344 13.6654 3.31801 13.6654 7.00001C13.6654 10.682 10.6807 13.6667 6.9987 13.6667ZM6.9987 12.3333C8.41319 12.3333 9.76974 11.7714 10.7699 10.7712C11.7701 9.77105 12.332 8.4145 12.332 7.00001C12.332 5.58552 11.7701 4.22897 10.7699 3.22877C9.76974 2.22858 8.41319 1.66668 6.9987 1.66668C5.58421 1.66668 4.22766 2.22858 3.22746 3.22877C2.22727 4.22897 1.66536 5.58552 1.66536 7.00001C1.66536 8.4145 2.22727 9.77105 3.22746 10.7712C4.22766 11.7714 5.58421 12.3333 6.9987 12.3333ZM6.33203 9.00001H7.66536V10.3333H6.33203V9.00001ZM7.66536 7.90334V8.33334H6.33203V7.33334C6.33203 7.15653 6.40227 6.98696 6.52729 6.86194C6.65232 6.73692 6.82189 6.66668 6.9987 6.66668C7.18808 6.66667 7.37357 6.61287 7.53358 6.51156C7.69359 6.41025 7.82154 6.26559 7.90255 6.0944C7.98355 5.92321 8.01428 5.73254 7.99115 5.54457C7.96803 5.3566 7.892 5.17907 7.77192 5.03262C7.65184 4.88617 7.49264 4.77683 7.31285 4.71732C7.13305 4.65782 6.94006 4.65059 6.75631 4.69648C6.57257 4.74237 6.40564 4.8395 6.27494 4.97655C6.14424 5.11361 6.05515 5.28497 6.01803 5.47068L4.71003 5.20868C4.79112 4.8034 4.97837 4.42692 5.25265 4.11773C5.52692 3.80854 5.87838 3.57773 6.27109 3.44889C6.66381 3.32005 7.08369 3.2978 7.48782 3.38442C7.89195 3.47104 8.26583 3.66342 8.57124 3.94189C8.87666 4.22037 9.10264 4.57495 9.22611 4.96939C9.34957 5.36382 9.36608 5.78397 9.27394 6.18688C9.18181 6.58979 8.98433 6.96101 8.70171 7.26259C8.41909 7.56416 8.06145 7.78528 7.66536 7.90334Z" fill="#632A6D"/>
</svg>
