<svg width="14" height="14" viewBox="0 0 14 14" fill="none" xmlns="http://www.w3.org/2000/svg">
<path d="M6.9987 13.6667C3.3167 13.6667 0.332031 10.682 0.332031 7C0.332031 3.318 3.3167 0.333328 6.9987 0.333328C10.6807 0.333328 13.6654 3.318 13.6654 7C13.6654 10.682 10.6807 13.6667 6.9987 13.6667ZM6.9987 12.3333C8.41319 12.3333 9.76974 11.7714 10.7699 10.7712C11.7701 9.77104 12.332 8.41448 12.332 7C12.332 5.58551 11.7701 4.22895 10.7699 3.22876C9.76974 2.22856 8.41319 1.66666 6.9987 1.66666C5.58421 1.66666 4.22766 2.22856 3.22746 3.22876C2.22727 4.22895 1.66536 5.58551 1.66536 7C1.66536 8.41448 2.22727 9.77104 3.22746 10.7712C4.22766 11.7714 5.58421 12.3333 6.9987 12.3333ZM6.33203 9H7.66536V10.3333H6.33203V9ZM7.66536 7.90333V8.33333H6.33203V7.33333C6.33203 7.15652 6.40227 6.98695 6.52729 6.86192C6.65232 6.7369 6.82189 6.66666 6.9987 6.66666C7.18808 6.66665 7.37357 6.61286 7.53358 6.51155C7.69359 6.41024 7.82154 6.26557 7.90255 6.09438C7.98355 5.9232 8.01428 5.73253 7.99115 5.54456C7.96803 5.35659 7.892 5.17905 7.77192 5.0326C7.65184 4.88615 7.49264 4.77681 7.31285 4.71731C7.13305 4.6578 6.94006 4.65057 6.75631 4.69647C6.57257 4.74236 6.40564 4.83948 6.27494 4.97654C6.14424 5.1136 6.05515 5.28495 6.01803 5.47066L4.71003 5.20866C4.79112 4.80338 4.97837 4.42691 5.25265 4.11772C5.52692 3.80853 5.87838 3.57772 6.27109 3.44887C6.66381 3.32003 7.08369 3.29779 7.48782 3.3844C7.89195 3.47102 8.26583 3.6634 8.57124 3.94188C8.87666 4.22035 9.10264 4.57493 9.22611 4.96937C9.34957 5.36381 9.36608 5.78396 9.27394 6.18687C9.18181 6.58978 8.98433 6.96099 8.70171 7.26257C8.41909 7.56415 8.06145 7.78527 7.66536 7.90333Z" fill="#8A8A99"/>
</svg>
