<svg width="14" height="14" viewBox="0 0 14 14" fill="none" xmlns="http://www.w3.org/2000/svg">
<path d="M6.9987 13.6666C3.3167 13.6666 0.332031 10.6819 0.332031 6.99992C0.332031 3.31792 3.3167 0.333252 6.9987 0.333252C10.6807 0.333252 13.6654 3.31792 13.6654 6.99992C13.6654 10.6819 10.6807 13.6666 6.9987 13.6666ZM6.9987 12.3333C8.41319 12.3333 9.76974 11.7713 10.7699 10.7712C11.7701 9.77096 12.332 8.41441 12.332 6.99992C12.332 5.58543 11.7701 4.22888 10.7699 3.22868C9.76974 2.22849 8.41319 1.66659 6.9987 1.66659C5.58421 1.66659 4.22766 2.22849 3.22746 3.22868C2.22727 4.22888 1.66536 5.58543 1.66536 6.99992C1.66536 8.41441 2.22727 9.77096 3.22746 10.7712C4.22766 11.7713 5.58421 12.3333 6.9987 12.3333ZM6.9987 10.3333C6.11464 10.3333 5.2668 9.98206 4.64168 9.35694C4.01655 8.73182 3.66536 7.88397 3.66536 6.99992C3.66536 6.11586 4.01655 5.26802 4.64168 4.6429C5.2668 4.01777 6.11464 3.66659 6.9987 3.66659C7.88275 3.66659 8.7306 4.01777 9.35572 4.6429C9.98084 5.26802 10.332 6.11586 10.332 6.99992C10.332 7.88397 9.98084 8.73182 9.35572 9.35694C8.7306 9.98206 7.88275 10.3333 6.9987 10.3333Z" fill="#632A6D"/>
</svg>
