<svg width="200" height="177" viewBox="0 0 200 177" fill="none" xmlns="http://www.w3.org/2000/svg">
<circle cx="5" cy="5.09204" r="5" fill="#F9ECFB" fill-opacity="0.39"/>
<circle cx="23" cy="5.09204" r="5" fill="#F9ECFB" fill-opacity="0.39"/>
<circle cx="41" cy="5.09204" r="5" fill="#F9ECFB" fill-opacity="0.39"/>
<circle cx="59" cy="5.09204" r="5" fill="#F9ECFB" fill-opacity="0.39"/>
<circle cx="77" cy="5.09204" r="5" fill="#F9ECFB" fill-opacity="0.39"/>
<circle cx="95" cy="5.09204" r="5" fill="#F9ECFB" fill-opacity="0.39"/>
<circle cx="5" cy="29.092" r="5" fill="#F9ECFB" fill-opacity="0.39"/>
<circle cx="23" cy="29.092" r="5" fill="#F9ECFB" fill-opacity="0.39"/>
<circle cx="41" cy="29.092" r="5" fill="#F9ECFB" fill-opacity="0.39"/>
<circle cx="59" cy="29.092" r="5" fill="#F9ECFB" fill-opacity="0.39"/>
<circle cx="77" cy="29.092" r="5" fill="#F9ECFB" fill-opacity="0.39"/>
<circle cx="95" cy="29.092" r="5" fill="#F9ECFB" fill-opacity="0.39"/>
<circle cx="5" cy="53.092" r="5" fill="#F9ECFB" fill-opacity="0.39"/>
<circle cx="23" cy="53.092" r="5" fill="#F9ECFB" fill-opacity="0.39"/>
<circle cx="41" cy="53.092" r="5" fill="#F9ECFB" fill-opacity="0.39"/>
<circle cx="59" cy="53.092" r="5" fill="#F9ECFB" fill-opacity="0.39"/>
<circle cx="77" cy="53.092" r="5" fill="#F9ECFB" fill-opacity="0.39"/>
<circle cx="95" cy="53.092" r="5" fill="#F9ECFB" fill-opacity="0.39"/>
<circle cx="5" cy="77.092" r="5" fill="#F9ECFB" fill-opacity="0.39"/>
<circle cx="23" cy="77.092" r="5" fill="#F9ECFB" fill-opacity="0.39"/>
<circle cx="41" cy="77.092" r="5" fill="#F9ECFB" fill-opacity="0.39"/>
<circle cx="59" cy="77.092" r="5" fill="#F9ECFB" fill-opacity="0.39"/>
<circle cx="77" cy="77.092" r="5" fill="#F9ECFB" fill-opacity="0.39"/>
<circle cx="95" cy="77.092" r="5" fill="#F9ECFB" fill-opacity="0.39"/>
<circle cx="5" cy="99.092" r="5" fill="#F9ECFB" fill-opacity="0.39"/>
<circle cx="23" cy="99.092" r="5" fill="#F9ECFB" fill-opacity="0.39"/>
<circle cx="41" cy="99.092" r="5" fill="#F9ECFB" fill-opacity="0.39"/>
<circle cx="59" cy="99.092" r="5" fill="#F9ECFB" fill-opacity="0.39"/>
<circle cx="77" cy="99.092" r="5" fill="#F9ECFB" fill-opacity="0.39"/>
<circle cx="95" cy="99.092" r="5" fill="#F9ECFB" fill-opacity="0.39"/>
<circle cx="5" cy="123.092" r="5" fill="#F9ECFB" fill-opacity="0.39"/>
<circle cx="23" cy="123.092" r="5" fill="#F9ECFB" fill-opacity="0.39"/>
<circle cx="41" cy="123.092" r="5" fill="#F9ECFB" fill-opacity="0.39"/>
<circle cx="59" cy="123.092" r="5" fill="#F9ECFB" fill-opacity="0.39"/>
<circle cx="77" cy="123.092" r="5" fill="#F9ECFB" fill-opacity="0.39"/>
<circle cx="95" cy="123.092" r="5" fill="#F9ECFB" fill-opacity="0.39"/>
<circle cx="5" cy="147.092" r="5" fill="#F9ECFB" fill-opacity="0.39"/>
<circle cx="23" cy="147.092" r="5" fill="#F9ECFB" fill-opacity="0.39"/>
<circle cx="41" cy="147.092" r="5" fill="#F9ECFB" fill-opacity="0.39"/>
<circle cx="59" cy="147.092" r="5" fill="#F9ECFB" fill-opacity="0.39"/>
<circle cx="77" cy="147.092" r="5" fill="#F9ECFB" fill-opacity="0.39"/>
<circle cx="95" cy="147.092" r="5" fill="#F9ECFB" fill-opacity="0.39"/>
<circle cx="5" cy="171.092" r="5" fill="#F9ECFB" fill-opacity="0.39"/>
<circle cx="23" cy="171.092" r="5" fill="#F9ECFB" fill-opacity="0.39"/>
<circle cx="41" cy="171.092" r="5" fill="#F9ECFB" fill-opacity="0.39"/>
<circle cx="59" cy="171.092" r="5" fill="#F9ECFB" fill-opacity="0.39"/>
<circle cx="77" cy="171.092" r="5" fill="#F9ECFB" fill-opacity="0.39"/>
<circle cx="95" cy="171.092" r="5" fill="#F9ECFB" fill-opacity="0.39"/>
<circle cx="105" cy="5.09204" r="5" fill="#F9ECFB" fill-opacity="0.39"/>
<circle cx="123" cy="5.09204" r="5" fill="#F9ECFB" fill-opacity="0.39"/>
<circle cx="141" cy="5.09204" r="5" fill="#F9ECFB" fill-opacity="0.39"/>
<circle cx="159" cy="5.09204" r="5" fill="#F9ECFB" fill-opacity="0.39"/>
<circle cx="177" cy="5.09204" r="5" fill="#F9ECFB" fill-opacity="0.39"/>
<circle cx="195" cy="5.09204" r="5" fill="#F9ECFB" fill-opacity="0.39"/>
<circle cx="105" cy="29.092" r="5" fill="#F9ECFB" fill-opacity="0.39"/>
<circle cx="123" cy="29.092" r="5" fill="#F9ECFB" fill-opacity="0.39"/>
<circle cx="141" cy="29.092" r="5" fill="#F9ECFB" fill-opacity="0.39"/>
<circle cx="159" cy="29.092" r="5" fill="#F9ECFB" fill-opacity="0.39"/>
<circle cx="177" cy="29.092" r="5" fill="#F9ECFB" fill-opacity="0.39"/>
<circle cx="195" cy="29.092" r="5" fill="#F9ECFB" fill-opacity="0.39"/>
<circle cx="105" cy="53.092" r="5" fill="#F9ECFB" fill-opacity="0.39"/>
<circle cx="123" cy="53.092" r="5" fill="#F9ECFB" fill-opacity="0.39"/>
<circle cx="141" cy="53.092" r="5" fill="#F9ECFB" fill-opacity="0.39"/>
<circle cx="159" cy="53.092" r="5" fill="#F9ECFB" fill-opacity="0.39"/>
<circle cx="177" cy="53.092" r="5" fill="#F9ECFB" fill-opacity="0.39"/>
<circle cx="195" cy="53.092" r="5" fill="#F9ECFB" fill-opacity="0.39"/>
<circle cx="105" cy="77.092" r="5" fill="#F9ECFB" fill-opacity="0.39"/>
<circle cx="123" cy="77.092" r="5" fill="#F9ECFB" fill-opacity="0.39"/>
<circle cx="141" cy="77.092" r="5" fill="#F9ECFB" fill-opacity="0.39"/>
<circle cx="159" cy="77.092" r="5" fill="#F9ECFB" fill-opacity="0.39"/>
<circle cx="177" cy="77.092" r="5" fill="#F9ECFB" fill-opacity="0.39"/>
<circle cx="195" cy="77.092" r="5" fill="#F9ECFB" fill-opacity="0.39"/>
<circle cx="105" cy="99.092" r="5" fill="#F9ECFB" fill-opacity="0.39"/>
<circle cx="123" cy="99.092" r="5" fill="#F9ECFB" fill-opacity="0.39"/>
<circle cx="141" cy="99.092" r="5" fill="#F9ECFB" fill-opacity="0.39"/>
<circle cx="159" cy="99.092" r="5" fill="#F9ECFB" fill-opacity="0.39"/>
<circle cx="177" cy="99.092" r="5" fill="#F9ECFB" fill-opacity="0.39"/>
<circle cx="195" cy="99.092" r="5" fill="#F9ECFB" fill-opacity="0.39"/>
<circle cx="105" cy="123.092" r="5" fill="#F9ECFB" fill-opacity="0.39"/>
<circle cx="123" cy="123.092" r="5" fill="#F9ECFB" fill-opacity="0.39"/>
<circle cx="141" cy="123.092" r="5" fill="#F9ECFB" fill-opacity="0.39"/>
<circle cx="159" cy="123.092" r="5" fill="#F9ECFB" fill-opacity="0.39"/>
<circle cx="177" cy="123.092" r="5" fill="#F9ECFB" fill-opacity="0.39"/>
<circle cx="195" cy="123.092" r="5" fill="#F9ECFB" fill-opacity="0.39"/>
<circle cx="105" cy="147.092" r="5" fill="#F9ECFB" fill-opacity="0.39"/>
<circle cx="123" cy="147.092" r="5" fill="#F9ECFB" fill-opacity="0.39"/>
<circle cx="141" cy="147.092" r="5" fill="#F9ECFB" fill-opacity="0.39"/>
<circle cx="159" cy="147.092" r="5" fill="#F9ECFB" fill-opacity="0.39"/>
<circle cx="177" cy="147.092" r="5" fill="#F9ECFB" fill-opacity="0.39"/>
<circle cx="195" cy="147.092" r="5" fill="#F9ECFB" fill-opacity="0.39"/>
<circle cx="105" cy="171.092" r="5" fill="#F9ECFB" fill-opacity="0.39"/>
<circle cx="123" cy="171.092" r="5" fill="#F9ECFB" fill-opacity="0.39"/>
<circle cx="141" cy="171.092" r="5" fill="#F9ECFB" fill-opacity="0.39"/>
<circle cx="159" cy="171.092" r="5" fill="#F9ECFB" fill-opacity="0.39"/>
<circle cx="177" cy="171.092" r="5" fill="#F9ECFB" fill-opacity="0.39"/>
<circle cx="195" cy="171.092" r="5" fill="#F9ECFB" fill-opacity="0.39"/>
</svg>
