<svg width="14" height="14" viewBox="0 0 14 14" fill="none" xmlns="http://www.w3.org/2000/svg">
<path d="M3.66536 3.33335V1.33335C3.66536 1.15654 3.7356 0.986973 3.86063 0.861949C3.98565 0.736925 4.15522 0.666687 4.33203 0.666687H9.66537C9.84218 0.666687 10.0117 0.736925 10.1368 0.861949C10.2618 0.986973 10.332 1.15654 10.332 1.33335V3.33335H12.9987C13.1755 3.33335 13.3451 3.40359 13.4701 3.52862C13.5951 3.65364 13.6654 3.82321 13.6654 4.00002V13.3334C13.6654 13.5102 13.5951 13.6797 13.4701 13.8048C13.3451 13.9298 13.1755 14 12.9987 14H0.998698C0.821887 14 0.652318 13.9298 0.527293 13.8048C0.402269 13.6797 0.332031 13.5102 0.332031 13.3334V4.00002C0.332031 3.82321 0.402269 3.65364 0.527293 3.52862C0.652318 3.40359 0.821887 3.33335 0.998698 3.33335H3.66536ZM1.66536 10.6667V12.6667H12.332V10.6667H1.66536ZM1.66536 9.33335H12.332V4.66669H1.66536V9.33335ZM4.9987 2.00002V3.33335H8.9987V2.00002H4.9987ZM6.33203 7.33335H7.66536V8.66669H6.33203V7.33335Z" fill="#8A8A99"/>
</svg>
