<svg width="8" height="12" viewBox="0 0 8 12" fill="none" xmlns="http://www.w3.org/2000/svg">
<path fill-rule="evenodd" clip-rule="evenodd" d="M4 1.5C4.13261 1.5 4.25979 1.55268 4.35355 1.64645C4.44732 1.74021 4.5 1.86739 4.5 2V11C4.5 11.1326 4.44732 11.2598 4.35355 11.3536C4.25979 11.4473 4.13261 11.5 4 11.5C3.86739 11.5 3.74021 11.4473 3.64645 11.3536C3.55268 11.2598 3.5 11.1326 3.5 11V2C3.5 1.86739 3.55268 1.74021 3.64645 1.64645C3.74021 1.55268 3.86739 1.5 4 1.5Z" fill="white"/>
<path fill-rule="evenodd" clip-rule="evenodd" d="M3.64599 0.646009C3.69244 0.599445 3.74761 0.562503 3.80836 0.537296C3.8691 0.51209 3.93422 0.499115 3.99999 0.499115C4.06576 0.499115 4.13088 0.51209 4.19162 0.537296C4.25237 0.562503 4.30755 0.599445 4.35399 0.646009L7.35399 3.64601C7.44788 3.7399 7.50062 3.86723 7.50062 4.00001C7.50062 4.13278 7.44788 4.26012 7.35399 4.35401C7.2601 4.4479 7.13277 4.50064 6.99999 4.50064C6.86722 4.50064 6.73988 4.4479 6.64599 4.35401L3.99999 1.70701L1.35399 4.35401C1.2601 4.4479 1.13277 4.50064 0.999991 4.50064C0.867215 4.50064 0.739877 4.4479 0.645991 4.35401C0.552104 4.26012 0.499359 4.13278 0.499359 4.00001C0.499359 3.86723 0.552104 3.7399 0.645991 3.64601L3.64599 0.646009Z" fill="white"/>
</svg>
