<svg width="45" height="19" viewBox="0 0 45 19" fill="none" xmlns="http://www.w3.org/2000/svg">
<g clip-path="url(#clip0)">
<path d="M40.9971 6.76224C40.0906 6.76224 40.1853 7.87637 40.1477 9.06582H41.658C41.658 7.72512 41.658 6.76224 40.9971 6.76224ZM40.1477 11.0107C40.1477 12.0868 40.6762 12.2945 41.5637 12.2945C42.5834 12.2945 43.9615 11.9922 44.4902 11.8979V14.5037C44.075 14.6549 42.81 15.0133 41.5637 15.0133C39.3167 15.0133 36.5786 14.6546 36.5786 9.85876C36.5786 5.6292 38.7312 4.62851 40.997 4.62851C43.3196 4.62851 45 5.81806 45 9.82094V11.0107H40.1477ZM31.2905 7.27199C31.0831 7.27199 30.6675 7.44194 30.4411 7.57428V12.4077C30.6108 12.4646 30.913 12.5023 31.0453 12.5023C31.6684 12.5023 32.046 11.9736 32.046 9.76453C32.0458 7.51746 31.8758 7.27199 31.2905 7.27199ZM31.7058 15.0135C31.2527 15.0135 30.7807 14.8813 30.4409 14.8057V18.4122H26.8533V4.81737H29.761L30.2898 5.44045C30.8373 4.94961 31.6116 4.62851 32.4235 4.62851C33.8961 4.62851 35.6332 5.04383 35.6332 9.76423C35.6332 14.9382 33.0276 15.0135 31.7058 15.0135ZM23.5483 3.5901C22.5477 3.5901 21.7736 2.77816 21.7736 1.79627C21.7736 0.814382 22.5477 0.00244141 23.5483 0.00244141C24.5492 0.00244141 25.3233 0.814382 25.3233 1.79627C25.3233 2.77816 24.5492 3.5901 23.5483 3.5901ZM21.7547 14.8247V4.81737H25.3423V14.8247H21.7547ZM19.5824 7.6308C19.016 7.6308 18.5816 7.85747 18.3928 7.9707V14.8247H14.8053V4.81737H17.6565L18.1851 5.78025C18.3928 5.15716 18.9592 4.62841 19.7901 4.62841C20.3566 4.62841 20.7342 4.74174 20.9039 4.83607V7.81925C20.5452 7.72512 20.0733 7.6308 19.5824 7.6308ZM12.7653 12.2946C12.9919 12.2946 13.785 12.1814 14.0491 12.1434V14.6925C13.5017 14.8245 12.2932 15.0135 11.5002 15.0135C10.4805 15.0135 8.57356 14.9003 8.57356 12.1247V7.10214H7.25187V4.81737H8.57376L9.0269 2.5516L12.1612 1.79638V4.81747H14.0494L13.5774 7.10225H12.1613V11.4828C12.1611 12.1623 12.3688 12.2946 12.7653 12.2946ZM3.49334 7.70632C3.49334 8.10284 3.75782 8.23498 4.3808 8.51816L4.75851 8.68821C5.64587 9.08473 6.87303 9.72672 6.87303 11.615C6.87303 14.636 4.62607 15.0136 3.02119 15.0136C1.98269 15.0136 0.887565 14.7681 0.151147 14.5417V11.9548C0.793034 12.125 1.90727 12.389 2.39801 12.389C2.94557 12.389 3.36099 12.3137 3.36099 11.8226C3.36099 11.445 3.09662 11.2752 2.51134 11.0109L2.05811 10.8031C1.20856 10.4065 0 9.72703 0 7.89538C0 5.21409 2.09582 4.62892 3.85194 4.62892C5.17373 4.62892 6.04229 4.9309 6.49532 5.10096V7.6122C5.96656 7.44235 4.89055 7.21568 4.24856 7.21568C3.81433 7.21548 3.49334 7.32861 3.49334 7.70632Z" fill="#359AD5"/>
</g>
<defs>
<clipPath id="clip0">
<rect width="45" height="18.414" fill="white"/>
</clipPath>
</defs>
</svg>
